{
	"asset":{
		"generator":"Khronos glTF Blender I/O v5.0.21",
		"version":"2.0"
	},
	"scene":0,
	"scenes":[
		{
			"name":"Scene",
			"nodes":[
				28
			]
		}
	],
	"nodes":[
		{
			"mesh":0,
			"name":"Line003_01 - Default_0",
			"translation":[
				0,
				-2.8308058972470462e-05,
				8.352630175068043e-06
			]
		},
		{
			"children":[
				0
			],
			"name":"Line003",
			"rotation":[
				-0.70710688829422,
				0,
				0,
				0.7071066498756409
			],
			"translation":[
				-0.015258788131177425,
				64.5521469116211,
				1071.1256103515625
			]
		},
		{
			"mesh":1,
			"name":"Line004_01 - Default_0",
			"translation":[
				5.147157480678288e-06,
				-2.239462628494948e-05,
				-9.932055036188103e-06
			]
		},
		{
			"children":[
				2
			],
			"name":"Line004",
			"rotation":[
				-0.70710688829422,
				0,
				0,
				0.7071066498756409
			],
			"translation":[
				-315.2594909667969,
				64.55213928222656,
				982.7233276367188
			]
		},
		{
			"mesh":2,
			"name":"Line005_01 - Default_0",
			"translation":[
				-3.576170274754986e-05,
				0,
				4.9476275307824835e-06
			]
		},
		{
			"children":[
				4
			],
			"name":"Line005",
			"rotation":[
				-0.70710688829422,
				0,
				0,
				0.7071066498756409
			],
			"translation":[
				-540.9691772460938,
				64.55213928222656,
				748.7518920898438
			]
		},
		{
			"mesh":3,
			"name":"Line006_01 - Default_0",
			"translation":[
				-1.7603306332603097e-05,
				9.69114807958249e-06,
				4.1832809074549004e-06
			]
		},
		{
			"children":[
				6
			],
			"name":"Line006",
			"rotation":[
				-0.70710688829422,
				0,
				0,
				0.7071066498756409
			],
			"translation":[
				-611.7357788085938,
				64.55213928222656,
				503.525390625
			]
		},
		{
			"mesh":4,
			"name":"Line007_01 - Default_0",
			"translation":[
				-1.7603306332603097e-05,
				1.758610778779257e-05,
				4.183310011285357e-06
			]
		},
		{
			"children":[
				8
			],
			"name":"Line007",
			"rotation":[
				-0.70710688829422,
				0,
				0,
				0.7071066498756409
			],
			"translation":[
				611.5643920898438,
				64.55213928222656,
				503.525390625
			]
		},
		{
			"mesh":5,
			"name":"Line008_01 - Default_0",
			"translation":[
				-3.576170274754986e-05,
				5.212853466218803e-06,
				4.947652996634133e-06
			]
		},
		{
			"children":[
				10
			],
			"name":"Line008",
			"rotation":[
				-0.70710688829422,
				0,
				0,
				0.7071066498756409
			],
			"translation":[
				540.797607421875,
				64.55215454101562,
				748.7518920898438
			]
		},
		{
			"mesh":6,
			"name":"Line009_01 - Default_0",
			"translation":[
				5.147157480678288e-06,
				-3.7338948004617123e-06,
				-9.932040484272875e-06
			]
		},
		{
			"children":[
				12
			],
			"name":"Line009",
			"rotation":[
				-0.70710688829422,
				0,
				0,
				0.7071066498756409
			],
			"translation":[
				315.0880126953125,
				64.55213928222656,
				982.7233276367188
			]
		},
		{
			"mesh":7,
			"name":"Rectangle001_01 - Default_0",
			"translation":[
				0,
				7.828791422070935e-05,
				7.087169797159731e-05
			]
		},
		{
			"children":[
				14
			],
			"name":"Rectangle001",
			"rotation":[
				-0.70710688829422,
				0,
				0,
				0.7071066498756409
			],
			"translation":[
				0,
				504.0461120605469,
				-8.497580711264163e-05
			]
		},
		{
			"mesh":8,
			"name":"Rectangle004_01 - Default_0",
			"translation":[
				0,
				7.844247011234984e-05,
				7.087169797159731e-05
			]
		},
		{
			"children":[
				16
			],
			"name":"Rectangle004",
			"rotation":[
				-0.70710688829422,
				0,
				0,
				0.7071066498756409
			],
			"translation":[
				0,
				508.56146240234375,
				-8.573703962611035e-05
			]
		},
		{
			"mesh":9,
			"name":"Rectangle005_01 - Default_0",
			"translation":[
				0,
				7.830592221580446e-05,
				7.087169797159731e-05
			]
		},
		{
			"children":[
				18
			],
			"name":"Rectangle005",
			"rotation":[
				-0.70710688829422,
				0,
				0,
				0.7071066498756409
			],
			"translation":[
				0,
				504.57232666015625,
				-8.506452286383137e-05
			]
		},
		{
			"mesh":10,
			"name":"Rectangle006_01 - Default_0"
		},
		{
			"children":[
				20
			],
			"name":"Rectangle006",
			"rotation":[
				-0.70710688829422,
				0,
				0,
				0.7071066498756409
			],
			"translation":[
				0,
				0,
				249.04718017578125
			]
		},
		{
			"mesh":11,
			"name":"Shape001_01 - Default_0",
			"translation":[
				0,
				4.0835053368937224e-05,
				4.887864270131104e-05
			]
		},
		{
			"children":[
				22
			],
			"name":"Shape001",
			"rotation":[
				-0.70710688829422,
				0,
				0,
				0.7071066498756409
			],
			"translation":[
				0,
				301.4290771484375,
				249.04725646972656
			]
		},
		{
			"mesh":12,
			"name":"Shape002_01 - Default_0",
			"translation":[
				0,
				3.4415998015902005e-06,
				1.073166640708223e-05
			]
		},
		{
			"children":[
				24
			],
			"name":"Shape002",
			"rotation":[
				-0.70710688829422,
				0,
				0,
				0.7071066498756409
			],
			"translation":[
				0,
				100.5477294921875,
				249.0471649169922
			]
		},
		{
			"children":[
				1,
				3,
				5,
				7,
				9,
				11,
				13,
				15,
				17,
				19,
				21,
				23,
				25
			],
			"name":"RootNode",
			"translation":[
				0,
				0,
				-6.103515625e-05
			]
		},
		{
			"children":[
				26
			],
			"name":"97a37d95f35c4fb0a482f3befe3c5327.fbx",
			"rotation":[
				0.70710688829422,
				0,
				0,
				0.7071066498756409
			],
			"scale":[
				0.0010000000474974513,
				0.0010000001639127731,
				0.0010000001639127731
			]
		},
		{
			"children":[
				27
			],
			"name":"Sketchfab_model",
			"rotation":[
				-0.7071067690849304,
				0,
				0,
				0.7071068286895752
			],
			"scale":[
				1.7038261890411377,
				1.7038261890411377,
				1.7038261890411377
			],
			"translation":[
				0,
				0,
				-1.029459834098816
			]
		}
	],
	"materials":[
		{
			"doubleSided":true,
			"name":"01_-_Default",
			"normalTexture":{
				"index":0
			},
			"pbrMetallicRoughness":{
				"baseColorTexture":{
					"index":1
				},
				"metallicRoughnessTexture":{
					"index":2
				}
			}
		}
	],
	"meshes":[
		{
			"name":"Line003_01 - Default_0",
			"primitives":[
				{
					"attributes":{
						"POSITION":0,
						"NORMAL":1,
						"TEXCOORD_0":2
					},
					"indices":3,
					"material":0
				}
			]
		},
		{
			"name":"Line004_01 - Default_0",
			"primitives":[
				{
					"attributes":{
						"POSITION":4,
						"NORMAL":5,
						"TEXCOORD_0":6
					},
					"indices":7,
					"material":0
				}
			]
		},
		{
			"name":"Line005_01 - Default_0",
			"primitives":[
				{
					"attributes":{
						"POSITION":8,
						"NORMAL":9,
						"TEXCOORD_0":10
					},
					"indices":11,
					"material":0
				}
			]
		},
		{
			"name":"Line006_01 - Default_0",
			"primitives":[
				{
					"attributes":{
						"POSITION":12,
						"NORMAL":13,
						"TEXCOORD_0":14
					},
					"indices":15,
					"material":0
				}
			]
		},
		{
			"name":"Line007_01 - Default_0",
			"primitives":[
				{
					"attributes":{
						"POSITION":16,
						"NORMAL":17,
						"TEXCOORD_0":18
					},
					"indices":19,
					"material":0
				}
			]
		},
		{
			"name":"Line008_01 - Default_0",
			"primitives":[
				{
					"attributes":{
						"POSITION":20,
						"NORMAL":21,
						"TEXCOORD_0":22
					},
					"indices":23,
					"material":0
				}
			]
		},
		{
			"name":"Line009_01 - Default_0",
			"primitives":[
				{
					"attributes":{
						"POSITION":24,
						"NORMAL":25,
						"TEXCOORD_0":26
					},
					"indices":27,
					"material":0
				}
			]
		},
		{
			"name":"Rectangle001_01 - Default_0",
			"primitives":[
				{
					"attributes":{
						"POSITION":28,
						"NORMAL":29,
						"TEXCOORD_0":30
					},
					"indices":31,
					"material":0
				}
			]
		},
		{
			"name":"Rectangle004_01 - Default_0",
			"primitives":[
				{
					"attributes":{
						"POSITION":32,
						"NORMAL":33,
						"TEXCOORD_0":34
					},
					"indices":35,
					"material":0
				}
			]
		},
		{
			"name":"Rectangle005_01 - Default_0",
			"primitives":[
				{
					"attributes":{
						"POSITION":36,
						"NORMAL":37,
						"TEXCOORD_0":38
					},
					"indices":39,
					"material":0
				}
			]
		},
		{
			"name":"Rectangle006_01 - Default_0",
			"primitives":[
				{
					"attributes":{
						"POSITION":40,
						"NORMAL":41,
						"TEXCOORD_0":42
					},
					"indices":43,
					"material":0
				}
			]
		},
		{
			"name":"Shape001_01 - Default_0",
			"primitives":[
				{
					"attributes":{
						"POSITION":44,
						"NORMAL":45,
						"TEXCOORD_0":46
					},
					"indices":47,
					"material":0
				}
			]
		},
		{
			"name":"Shape002_01 - Default_0",
			"primitives":[
				{
					"attributes":{
						"POSITION":48,
						"NORMAL":49,
						"TEXCOORD_0":50
					},
					"indices":51,
					"material":0
				}
			]
		}
	],
	"textures":[
		{
			"sampler":0,
			"source":0
		},
		{
			"sampler":0,
			"source":1
		},
		{
			"sampler":0,
			"source":2
		}
	],
	"images":[
		{
			"mimeType":"image/png",
			"name":"01_-_Default_normal",
			"uri":"01_-_Default_normal.png"
		},
		{
			"mimeType":"image/jpeg",
			"name":"01_-_Default_baseColor",
			"uri":"01_-_Default_baseColor.jpg"
		},
		{
			"mimeType":"image/png",
			"name":"01_-_Default_metallicRoughness",
			"uri":"01_-_Default_metallicRoughness.png"
		}
	],
	"accessors":[
		{
			"bufferView":0,
			"componentType":5126,
			"count":706,
			"max":[
				12.96331787109375,
				12.63800048828125,
				57.06077575683594
			],
			"min":[
				-12.97918701171875,
				-13.05938720703125,
				-57.060787200927734
			],
			"type":"VEC3"
		},
		{
			"bufferView":1,
			"componentType":5126,
			"count":706,
			"type":"VEC3"
		},
		{
			"bufferView":2,
			"componentType":5126,
			"count":706,
			"type":"VEC2"
		},
		{
			"bufferView":3,
			"componentType":5123,
			"count":1080,
			"type":"SCALAR"
		},
		{
			"bufferView":4,
			"componentType":5126,
			"count":719,
			"max":[
				17.506195068359375,
				17.35205078125,
				57.06077575683594
			],
			"min":[
				-17.459091186523438,
				-17.3385009765625,
				-57.060787200927734
			],
			"type":"VEC3"
		},
		{
			"bufferView":5,
			"componentType":5126,
			"count":719,
			"type":"VEC3"
		},
		{
			"bufferView":6,
			"componentType":5126,
			"count":719,
			"type":"VEC2"
		},
		{
			"bufferView":7,
			"componentType":5123,
			"count":1080,
			"type":"SCALAR"
		},
		{
			"bufferView":8,
			"componentType":5126,
			"count":727,
			"max":[
				17.075714111328125,
				17.20391845703125,
				57.060707092285156
			],
			"min":[
				-16.97589111328125,
				-17.18658447265625,
				-57.06085968017578
			],
			"type":"VEC3"
		},
		{
			"bufferView":9,
			"componentType":5126,
			"count":727,
			"type":"VEC3"
		},
		{
			"bufferView":10,
			"componentType":5126,
			"count":727,
			"type":"VEC2"
		},
		{
			"bufferView":11,
			"componentType":5123,
			"count":1080,
			"type":"SCALAR"
		},
		{
			"bufferView":12,
			"componentType":5126,
			"count":728,
			"max":[
				13.422454833984375,
				13.7391357421875,
				57.06085205078125
			],
			"min":[
				-13.3125,
				-13.7225341796875,
				-57.06071472167969
			],
			"type":"VEC3"
		},
		{
			"bufferView":13,
			"componentType":5126,
			"count":728,
			"type":"VEC3"
		},
		{
			"bufferView":14,
			"componentType":5126,
			"count":728,
			"type":"VEC2"
		},
		{
			"bufferView":15,
			"componentType":5123,
			"count":1080,
			"type":"SCALAR"
		},
		{
			"bufferView":16,
			"componentType":5126,
			"count":715,
			"max":[
				13.312347412109375,
				13.73895263671875,
				57.06065368652344
			],
			"min":[
				-13.422607421875,
				-13.72265625,
				-57.0609130859375
			],
			"type":"VEC3"
		},
		{
			"bufferView":17,
			"componentType":5126,
			"count":715,
			"type":"VEC3"
		},
		{
			"bufferView":18,
			"componentType":5126,
			"count":715,
			"type":"VEC2"
		},
		{
			"bufferView":19,
			"componentType":5123,
			"count":1080,
			"type":"SCALAR"
		},
		{
			"bufferView":20,
			"componentType":5126,
			"count":714,
			"max":[
				16.97607421875,
				17.20404052734375,
				57.06060791015625
			],
			"min":[
				-17.075531005859375,
				-17.18646240234375,
				-57.06096267700195
			],
			"type":"VEC3"
		},
		{
			"bufferView":21,
			"componentType":5126,
			"count":714,
			"type":"VEC3"
		},
		{
			"bufferView":22,
			"componentType":5126,
			"count":714,
			"type":"VEC2"
		},
		{
			"bufferView":23,
			"componentType":5123,
			"count":1080,
			"type":"SCALAR"
		},
		{
			"bufferView":24,
			"componentType":5126,
			"count":729,
			"max":[
				17.459136962890625,
				17.35198974609375,
				57.06065368652344
			],
			"min":[
				-17.506149291992188,
				-17.3385009765625,
				-57.0609130859375
			],
			"type":"VEC3"
		},
		{
			"bufferView":25,
			"componentType":5126,
			"count":729,
			"type":"VEC3"
		},
		{
			"bufferView":26,
			"componentType":5126,
			"count":729,
			"type":"VEC2"
		},
		{
			"bufferView":27,
			"componentType":5123,
			"count":1080,
			"type":"SCALAR"
		},
		{
			"bufferView":28,
			"componentType":5126,
			"count":509,
			"max":[
				721.6309814453125,
				-235.85263061523438,
				8.049687385559082
			],
			"min":[
				-721.6309814453125,
				-1154.2333984375,
				0
			],
			"type":"VEC3"
		},
		{
			"bufferView":29,
			"componentType":5126,
			"count":509,
			"type":"VEC3"
		},
		{
			"bufferView":30,
			"componentType":5126,
			"count":509,
			"type":"VEC2"
		},
		{
			"bufferView":31,
			"componentType":5123,
			"count":2082,
			"type":"SCALAR"
		},
		{
			"bufferView":32,
			"componentType":5126,
			"count":337,
			"max":[
				600.2498168945312,
				-249.046875,
				21.257963180541992
			],
			"min":[
				-600.06201171875,
				-1055.5528564453125,
				2.1138865122338757e-05
			],
			"type":"VEC3"
		},
		{
			"bufferView":33,
			"componentType":5126,
			"count":337,
			"type":"VEC3"
		},
		{
			"bufferView":34,
			"componentType":5126,
			"count":337,
			"type":"VEC2"
		},
		{
			"bufferView":35,
			"componentType":5123,
			"count":1458,
			"type":"SCALAR"
		},
		{
			"bufferView":36,
			"componentType":5126,
			"count":113,
			"max":[
				572.5076293945312,
				-249.04649353027344,
				6.637730598449707
			],
			"min":[
				-574.6222534179688,
				-1002.157470703125,
				2.1772335458081216e-05
			],
			"type":"VEC3"
		},
		{
			"bufferView":37,
			"componentType":5126,
			"count":113,
			"type":"VEC3"
		},
		{
			"bufferView":38,
			"componentType":5126,
			"count":113,
			"type":"VEC2"
		},
		{
			"bufferView":39,
			"componentType":5123,
			"count":291,
			"type":"SCALAR"
		},
		{
			"bufferView":40,
			"componentType":5126,
			"count":474,
			"max":[
				700.963623046875,
				0.000579833984375,
				7.819148063659668
			],
			"min":[
				-700.963623046875,
				-892.078125,
				0
			],
			"type":"VEC3"
		},
		{
			"bufferView":41,
			"componentType":5126,
			"count":474,
			"type":"VEC3"
		},
		{
			"bufferView":42,
			"componentType":5126,
			"count":474,
			"type":"VEC2"
		},
		{
			"bufferView":43,
			"componentType":5123,
			"count":2085,
			"type":"SCALAR"
		},
		{
			"bufferView":44,
			"componentType":5126,
			"count":646,
			"max":[
				567.9925537109375,
				0.0006103515625,
				198.47889709472656
			],
			"min":[
				-567.99267578125,
				-759.1104125976562,
				-295.40277099609375
			],
			"type":"VEC3"
		},
		{
			"bufferView":45,
			"componentType":5126,
			"count":646,
			"type":"VEC3"
		},
		{
			"bufferView":46,
			"componentType":5126,
			"count":646,
			"type":"VEC2"
		},
		{
			"bufferView":47,
			"componentType":5123,
			"count":1092,
			"type":"SCALAR"
		},
		{
			"bufferView":48,
			"componentType":5126,
			"count":853,
			"max":[
				625.2329711914062,
				-117.0262451171875,
				19.442424774169922
			],
			"min":[
				-625.2329711914062,
				-833.00390625,
				-2.442424774169922
			],
			"type":"VEC3"
		},
		{
			"bufferView":49,
			"componentType":5126,
			"count":853,
			"type":"VEC3"
		},
		{
			"bufferView":50,
			"componentType":5126,
			"count":853,
			"type":"VEC2"
		},
		{
			"bufferView":51,
			"componentType":5123,
			"count":2796,
			"type":"SCALAR"
		}
	],
	"bufferViews":[
		{
			"buffer":0,
			"byteLength":8472,
			"byteOffset":0,
			"target":34962
		},
		{
			"buffer":0,
			"byteLength":8472,
			"byteOffset":8472,
			"target":34962
		},
		{
			"buffer":0,
			"byteLength":5648,
			"byteOffset":16944,
			"target":34962
		},
		{
			"buffer":0,
			"byteLength":2160,
			"byteOffset":22592,
			"target":34963
		},
		{
			"buffer":0,
			"byteLength":8628,
			"byteOffset":24752,
			"target":34962
		},
		{
			"buffer":0,
			"byteLength":8628,
			"byteOffset":33380,
			"target":34962
		},
		{
			"buffer":0,
			"byteLength":5752,
			"byteOffset":42008,
			"target":34962
		},
		{
			"buffer":0,
			"byteLength":2160,
			"byteOffset":47760,
			"target":34963
		},
		{
			"buffer":0,
			"byteLength":8724,
			"byteOffset":49920,
			"target":34962
		},
		{
			"buffer":0,
			"byteLength":8724,
			"byteOffset":58644,
			"target":34962
		},
		{
			"buffer":0,
			"byteLength":5816,
			"byteOffset":67368,
			"target":34962
		},
		{
			"buffer":0,
			"byteLength":2160,
			"byteOffset":73184,
			"target":34963
		},
		{
			"buffer":0,
			"byteLength":8736,
			"byteOffset":75344,
			"target":34962
		},
		{
			"buffer":0,
			"byteLength":8736,
			"byteOffset":84080,
			"target":34962
		},
		{
			"buffer":0,
			"byteLength":5824,
			"byteOffset":92816,
			"target":34962
		},
		{
			"buffer":0,
			"byteLength":2160,
			"byteOffset":98640,
			"target":34963
		},
		{
			"buffer":0,
			"byteLength":8580,
			"byteOffset":100800,
			"target":34962
		},
		{
			"buffer":0,
			"byteLength":8580,
			"byteOffset":109380,
			"target":34962
		},
		{
			"buffer":0,
			"byteLength":5720,
			"byteOffset":117960,
			"target":34962
		},
		{
			"buffer":0,
			"byteLength":2160,
			"byteOffset":123680,
			"target":34963
		},
		{
			"buffer":0,
			"byteLength":8568,
			"byteOffset":125840,
			"target":34962
		},
		{
			"buffer":0,
			"byteLength":8568,
			"byteOffset":134408,
			"target":34962
		},
		{
			"buffer":0,
			"byteLength":5712,
			"byteOffset":142976,
			"target":34962
		},
		{
			"buffer":0,
			"byteLength":2160,
			"byteOffset":148688,
			"target":34963
		},
		{
			"buffer":0,
			"byteLength":8748,
			"byteOffset":150848,
			"target":34962
		},
		{
			"buffer":0,
			"byteLength":8748,
			"byteOffset":159596,
			"target":34962
		},
		{
			"buffer":0,
			"byteLength":5832,
			"byteOffset":168344,
			"target":34962
		},
		{
			"buffer":0,
			"byteLength":2160,
			"byteOffset":174176,
			"target":34963
		},
		{
			"buffer":0,
			"byteLength":6108,
			"byteOffset":176336,
			"target":34962
		},
		{
			"buffer":0,
			"byteLength":6108,
			"byteOffset":182444,
			"target":34962
		},
		{
			"buffer":0,
			"byteLength":4072,
			"byteOffset":188552,
			"target":34962
		},
		{
			"buffer":0,
			"byteLength":4164,
			"byteOffset":192624,
			"target":34963
		},
		{
			"buffer":0,
			"byteLength":4044,
			"byteOffset":196788,
			"target":34962
		},
		{
			"buffer":0,
			"byteLength":4044,
			"byteOffset":200832,
			"target":34962
		},
		{
			"buffer":0,
			"byteLength":2696,
			"byteOffset":204876,
			"target":34962
		},
		{
			"buffer":0,
			"byteLength":2916,
			"byteOffset":207572,
			"target":34963
		},
		{
			"buffer":0,
			"byteLength":1356,
			"byteOffset":210488,
			"target":34962
		},
		{
			"buffer":0,
			"byteLength":1356,
			"byteOffset":211844,
			"target":34962
		},
		{
			"buffer":0,
			"byteLength":904,
			"byteOffset":213200,
			"target":34962
		},
		{
			"buffer":0,
			"byteLength":582,
			"byteOffset":214104,
			"target":34963
		},
		{
			"buffer":0,
			"byteLength":5688,
			"byteOffset":214688,
			"target":34962
		},
		{
			"buffer":0,
			"byteLength":5688,
			"byteOffset":220376,
			"target":34962
		},
		{
			"buffer":0,
			"byteLength":3792,
			"byteOffset":226064,
			"target":34962
		},
		{
			"buffer":0,
			"byteLength":4170,
			"byteOffset":229856,
			"target":34963
		},
		{
			"buffer":0,
			"byteLength":7752,
			"byteOffset":234028,
			"target":34962
		},
		{
			"buffer":0,
			"byteLength":7752,
			"byteOffset":241780,
			"target":34962
		},
		{
			"buffer":0,
			"byteLength":5168,
			"byteOffset":249532,
			"target":34962
		},
		{
			"buffer":0,
			"byteLength":2184,
			"byteOffset":254700,
			"target":34963
		},
		{
			"buffer":0,
			"byteLength":10236,
			"byteOffset":256884,
			"target":34962
		},
		{
			"buffer":0,
			"byteLength":10236,
			"byteOffset":267120,
			"target":34962
		},
		{
			"buffer":0,
			"byteLength":6824,
			"byteOffset":277356,
			"target":34962
		},
		{
			"buffer":0,
			"byteLength":5592,
			"byteOffset":284180,
			"target":34963
		}
	],
	"samplers":[
		{
			"magFilter":9729,
			"minFilter":9987
		}
	],
	"buffers":[
		{
			"byteLength":289772,
			"uri":"blackjack_table.bin"
		}
	]
}
