{
	"asset":{
		"generator":"Khronos glTF Blender I/O v5.0.21",
		"version":"2.0"
	},
	"extensionsUsed":[
		"KHR_materials_anisotropy"
	],
	"scene":0,
	"scenes":[
		{
			"name":"Scene",
			"nodes":[
				0,
				1,
				2,
				3,
				4,
				5
			]
		}
	],
	"nodes":[
		{
			"mesh":0,
			"name":"Poker_Chip_10000",
			"translation":[
				0.00010108458809554577,
				0,
				0
			]
		},
		{
			"mesh":1,
			"name":"Poker_Chip_100",
			"translation":[
				0.00010108458809554577,
				0,
				0
			]
		},
		{
			"mesh":2,
			"name":"Poker_Chip_200",
			"translation":[
				0.00010108458809554577,
				0,
				0
			]
		},
		{
			"mesh":3,
			"name":"Poker_Chip_500",
			"translation":[
				0.00010108458809554577,
				0,
				0
			]
		},
		{
			"mesh":4,
			"name":"Poker_Chip_1000",
			"translation":[
				0.00010108458809554577,
				0,
				0
			]
		},
		{
			"mesh":5,
			"name":"Poker_Chip_2000",
			"translation":[
				0.00010108458809554577,
				0,
				0
			]
		}
	],
	"materials":[
		{
			"doubleSided":true,
			"extensions":{
				"KHR_materials_anisotropy":{
					"anisotropyStrength":1,
					"anisotropyTexture":{
						"index":0
					}
				}
			},
			"name":"Poker_chip_10000",
			"normalTexture":{
				"index":1
			},
			"pbrMetallicRoughness":{
				"baseColorTexture":{
					"index":2
				},
				"metallicRoughnessTexture":{
					"index":3
				}
			}
		},
		{
			"doubleSided":true,
			"extensions":{
				"KHR_materials_anisotropy":{
					"anisotropyStrength":1,
					"anisotropyTexture":{
						"index":4
					}
				}
			},
			"name":"Poker_chip_100",
			"normalTexture":{
				"index":5
			},
			"pbrMetallicRoughness":{
				"baseColorTexture":{
					"index":6
				},
				"metallicRoughnessTexture":{
					"index":7
				}
			}
		},
		{
			"doubleSided":true,
			"extensions":{
				"KHR_materials_anisotropy":{
					"anisotropyStrength":1,
					"anisotropyTexture":{
						"index":8
					}
				}
			},
			"name":"Poker_chip_200",
			"normalTexture":{
				"index":9
			},
			"pbrMetallicRoughness":{
				"baseColorTexture":{
					"index":10
				},
				"metallicRoughnessTexture":{
					"index":11
				}
			}
		},
		{
			"doubleSided":true,
			"extensions":{
				"KHR_materials_anisotropy":{
					"anisotropyStrength":1,
					"anisotropyTexture":{
						"index":12
					}
				}
			},
			"name":"Poker_chip_500",
			"normalTexture":{
				"index":13
			},
			"pbrMetallicRoughness":{
				"baseColorTexture":{
					"index":14
				},
				"metallicRoughnessTexture":{
					"index":15
				}
			}
		},
		{
			"doubleSided":true,
			"extensions":{
				"KHR_materials_anisotropy":{
					"anisotropyStrength":1,
					"anisotropyTexture":{
						"index":16
					}
				}
			},
			"name":"Poker_chip_1000",
			"normalTexture":{
				"index":17
			},
			"pbrMetallicRoughness":{
				"baseColorTexture":{
					"index":18
				},
				"metallicRoughnessTexture":{
					"index":19
				}
			}
		},
		{
			"doubleSided":true,
			"extensions":{
				"KHR_materials_anisotropy":{
					"anisotropyStrength":1,
					"anisotropyTexture":{
						"index":20
					}
				}
			},
			"name":"Poker_chip_2000",
			"normalTexture":{
				"index":21
			},
			"pbrMetallicRoughness":{
				"baseColorTexture":{
					"index":22
				},
				"metallicRoughnessTexture":{
					"index":23
				}
			}
		}
	],
	"meshes":[
		{
			"name":"Circle.009",
			"primitives":[
				{
					"attributes":{
						"POSITION":0,
						"NORMAL":1,
						"TEXCOORD_0":2
					},
					"indices":3,
					"material":0
				}
			]
		},
		{
			"name":"Circle.004",
			"primitives":[
				{
					"attributes":{
						"POSITION":4,
						"NORMAL":5,
						"TEXCOORD_0":6
					},
					"indices":7,
					"material":1
				}
			]
		},
		{
			"name":"Circle.005",
			"primitives":[
				{
					"attributes":{
						"POSITION":8,
						"NORMAL":9,
						"TEXCOORD_0":10
					},
					"indices":3,
					"material":2
				}
			]
		},
		{
			"name":"Circle.006",
			"primitives":[
				{
					"attributes":{
						"POSITION":11,
						"NORMAL":12,
						"TEXCOORD_0":13
					},
					"indices":3,
					"material":3
				}
			]
		},
		{
			"name":"Circle.007",
			"primitives":[
				{
					"attributes":{
						"POSITION":14,
						"NORMAL":15,
						"TEXCOORD_0":16
					},
					"indices":3,
					"material":4
				}
			]
		},
		{
			"name":"Circle.008",
			"primitives":[
				{
					"attributes":{
						"POSITION":17,
						"NORMAL":18,
						"TEXCOORD_0":19
					},
					"indices":3,
					"material":5
				}
			]
		}
	],
	"textures":[
		{
			"sampler":0,
			"source":0
		},
		{
			"sampler":0,
			"source":1
		},
		{
			"sampler":0,
			"source":2
		},
		{
			"sampler":0,
			"source":3
		},
		{
			"sampler":0,
			"source":0
		},
		{
			"sampler":0,
			"source":4
		},
		{
			"sampler":0,
			"source":5
		},
		{
			"sampler":0,
			"source":6
		},
		{
			"sampler":0,
			"source":0
		},
		{
			"sampler":0,
			"source":7
		},
		{
			"sampler":0,
			"source":8
		},
		{
			"sampler":0,
			"source":6
		},
		{
			"sampler":0,
			"source":0
		},
		{
			"sampler":0,
			"source":9
		},
		{
			"sampler":0,
			"source":10
		},
		{
			"sampler":0,
			"source":6
		},
		{
			"sampler":0,
			"source":0
		},
		{
			"sampler":0,
			"source":11
		},
		{
			"sampler":0,
			"source":12
		},
		{
			"sampler":0,
			"source":6
		},
		{
			"sampler":0,
			"source":0
		},
		{
			"sampler":0,
			"source":13
		},
		{
			"sampler":0,
			"source":14
		},
		{
			"sampler":0,
			"source":6
		}
	],
	"images":[
		{
			"mimeType":"image/png",
			"name":"Image",
			"uri":"Image.png"
		},
		{
			"mimeType":"image/png",
			"name":"normal_10k",
			"uri":"normal_10k.png"
		},
		{
			"mimeType":"image/jpeg",
			"name":"color_10k",
			"uri":"color_10k.jpg"
		},
		{
			"mimeType":"image/png",
			"name":"metallic 1k-roughness low value",
			"uri":"metallic%201k-roughness%20low%20value.png"
		},
		{
			"mimeType":"image/png",
			"name":"normal_100",
			"uri":"normal_100.png"
		},
		{
			"mimeType":"image/jpeg",
			"name":"color_100",
			"uri":"color_100.jpg"
		},
		{
			"mimeType":"image/png",
			"name":"metallic 1k-roughness low value",
			"uri":"metallic%201k-roughness%20low%20value-1.png"
		},
		{
			"mimeType":"image/png",
			"name":"normal_200",
			"uri":"normal_200.png"
		},
		{
			"mimeType":"image/jpeg",
			"name":"color_200",
			"uri":"color_200.jpg"
		},
		{
			"mimeType":"image/png",
			"name":"normal_500",
			"uri":"normal_500.png"
		},
		{
			"mimeType":"image/jpeg",
			"name":"color_500",
			"uri":"color_500.jpg"
		},
		{
			"mimeType":"image/png",
			"name":"normal_1000",
			"uri":"normal_1000.png"
		},
		{
			"mimeType":"image/jpeg",
			"name":"color_1000",
			"uri":"color_1000.jpg"
		},
		{
			"mimeType":"image/png",
			"name":"normal_2000",
			"uri":"normal_2000.png"
		},
		{
			"mimeType":"image/jpeg",
			"name":"color_2000",
			"uri":"color_2000.jpg"
		}
	],
	"accessors":[
		{
			"bufferView":0,
			"componentType":5126,
			"count":128,
			"max":[
				0.023907989263534546,
				0.0009499997831881046,
				0.02390800602734089
			],
			"min":[
				-0.023908033967018127,
				-0.0009500002488493919,
				-0.02390800230205059
			],
			"type":"VEC3"
		},
		{
			"bufferView":1,
			"componentType":5126,
			"count":128,
			"type":"VEC3"
		},
		{
			"bufferView":2,
			"componentType":5126,
			"count":128,
			"type":"VEC2"
		},
		{
			"bufferView":3,
			"componentType":5123,
			"count":372,
			"type":"SCALAR"
		},
		{
			"bufferView":4,
			"componentType":5126,
			"count":128,
			"max":[
				0.02390800416469574,
				0.0009499997831881046,
				0.02390800416469574
			],
			"min":[
				-0.02390800416469574,
				-0.0009500002488493919,
				-0.02390800416469574
			],
			"type":"VEC3"
		},
		{
			"bufferView":5,
			"componentType":5126,
			"count":128,
			"type":"VEC3"
		},
		{
			"bufferView":6,
			"componentType":5126,
			"count":128,
			"type":"VEC2"
		},
		{
			"bufferView":7,
			"componentType":5123,
			"count":372,
			"type":"SCALAR"
		},
		{
			"bufferView":8,
			"componentType":5126,
			"count":128,
			"max":[
				0.023908011615276337,
				0.0009499997831881046,
				0.02390800602734089
			],
			"min":[
				-0.02390800043940544,
				-0.0009500002488493919,
				-0.02390800230205059
			],
			"type":"VEC3"
		},
		{
			"bufferView":9,
			"componentType":5126,
			"count":128,
			"type":"VEC3"
		},
		{
			"bufferView":10,
			"componentType":5126,
			"count":128,
			"type":"VEC2"
		},
		{
			"bufferView":11,
			"componentType":5126,
			"count":128,
			"max":[
				0.023907989263534546,
				0.0009499997831881046,
				0.02390800602734089
			],
			"min":[
				-0.023908019065856934,
				-0.0009500002488493919,
				-0.02390800230205059
			],
			"type":"VEC3"
		},
		{
			"bufferView":12,
			"componentType":5126,
			"count":128,
			"type":"VEC3"
		},
		{
			"bufferView":13,
			"componentType":5126,
			"count":128,
			"type":"VEC2"
		},
		{
			"bufferView":14,
			"componentType":5126,
			"count":128,
			"max":[
				0.023907989263534546,
				0.0009499997831881046,
				0.02390800602734089
			],
			"min":[
				-0.023908019065856934,
				-0.0009500002488493919,
				-0.02390800230205059
			],
			"type":"VEC3"
		},
		{
			"bufferView":15,
			"componentType":5126,
			"count":128,
			"type":"VEC3"
		},
		{
			"bufferView":16,
			"componentType":5126,
			"count":128,
			"type":"VEC2"
		},
		{
			"bufferView":17,
			"componentType":5126,
			"count":128,
			"max":[
				0.023907989263534546,
				0.0009499997831881046,
				0.02390800602734089
			],
			"min":[
				-0.023908019065856934,
				-0.0009500002488493919,
				-0.02390800230205059
			],
			"type":"VEC3"
		},
		{
			"bufferView":18,
			"componentType":5126,
			"count":128,
			"type":"VEC3"
		},
		{
			"bufferView":19,
			"componentType":5126,
			"count":128,
			"type":"VEC2"
		}
	],
	"bufferViews":[
		{
			"buffer":0,
			"byteLength":1536,
			"byteOffset":0,
			"target":34962
		},
		{
			"buffer":0,
			"byteLength":1536,
			"byteOffset":1536,
			"target":34962
		},
		{
			"buffer":0,
			"byteLength":1024,
			"byteOffset":3072,
			"target":34962
		},
		{
			"buffer":0,
			"byteLength":744,
			"byteOffset":4096,
			"target":34963
		},
		{
			"buffer":0,
			"byteLength":1536,
			"byteOffset":4840,
			"target":34962
		},
		{
			"buffer":0,
			"byteLength":1536,
			"byteOffset":6376,
			"target":34962
		},
		{
			"buffer":0,
			"byteLength":1024,
			"byteOffset":7912,
			"target":34962
		},
		{
			"buffer":0,
			"byteLength":744,
			"byteOffset":8936,
			"target":34963
		},
		{
			"buffer":0,
			"byteLength":1536,
			"byteOffset":9680,
			"target":34962
		},
		{
			"buffer":0,
			"byteLength":1536,
			"byteOffset":11216,
			"target":34962
		},
		{
			"buffer":0,
			"byteLength":1024,
			"byteOffset":12752,
			"target":34962
		},
		{
			"buffer":0,
			"byteLength":1536,
			"byteOffset":13776,
			"target":34962
		},
		{
			"buffer":0,
			"byteLength":1536,
			"byteOffset":15312,
			"target":34962
		},
		{
			"buffer":0,
			"byteLength":1024,
			"byteOffset":16848,
			"target":34962
		},
		{
			"buffer":0,
			"byteLength":1536,
			"byteOffset":17872,
			"target":34962
		},
		{
			"buffer":0,
			"byteLength":1536,
			"byteOffset":19408,
			"target":34962
		},
		{
			"buffer":0,
			"byteLength":1024,
			"byteOffset":20944,
			"target":34962
		},
		{
			"buffer":0,
			"byteLength":1536,
			"byteOffset":21968,
			"target":34962
		},
		{
			"buffer":0,
			"byteLength":1536,
			"byteOffset":23504,
			"target":34962
		},
		{
			"buffer":0,
			"byteLength":1024,
			"byteOffset":25040,
			"target":34962
		}
	],
	"samplers":[
		{
			"magFilter":9729,
			"minFilter":9987
		}
	],
	"buffers":[
		{
			"byteLength":26064,
			"uri":"chip.bin"
		}
	]
}
